<svg xmlns="http://www.w3.org/2000/svg" xmlns:xlink="http://www.w3.org/1999/xlink" width="1920" zoomAndPan="magnify" viewBox="0 0 1440 809.999993" height="1080" preserveAspectRatio="xMidYMid meet" version="1.0"><defs><clipPath id="e9d1e03767"><path d="M 22.96875 0 L 297.46875 0 L 297.46875 274.5 L 22.96875 274.5 Z M 22.96875 0 " clip-rule="nonzero"/></clipPath><clipPath id="7f638565fe"><path d="M 845.980469 0 L 1120.480469 0 L 1120.480469 274.5 L 845.980469 274.5 Z M 845.980469 0 " clip-rule="nonzero"/></clipPath><clipPath id="c164e3e752"><path d="M 845.980469 0 L 984 0 L 984 274.5 L 845.980469 274.5 Z M 845.980469 0 " clip-rule="nonzero"/></clipPath><clipPath id="8eb79bb8ff"><path d="M 22.96875 273.398438 L 297.46875 273.398438 L 297.46875 547.898438 L 22.96875 547.898438 Z M 22.96875 273.398438 " clip-rule="nonzero"/></clipPath><clipPath id="d9852a9549"><path d="M 22.96875 273.398438 L 161 273.398438 L 161 547.898438 L 22.96875 547.898438 Z M 22.96875 273.398438 " clip-rule="nonzero"/></clipPath><clipPath id="616593b612"><path d="M 160 273.398438 L 297.46875 273.398438 L 297.46875 547.898438 L 160 547.898438 Z M 160 273.398438 " clip-rule="nonzero"/></clipPath><clipPath id="80197499c8"><path d="M 22.96875 273.398438 L 161 273.398438 L 161 547.898438 L 22.96875 547.898438 Z M 22.96875 273.398438 " clip-rule="nonzero"/></clipPath><clipPath id="ed8713073c"><path d="M 570.394531 0 L 844.894531 0 L 844.894531 274.5 L 570.394531 274.5 Z M 570.394531 0 " clip-rule="nonzero"/></clipPath><clipPath id="172996f217"><path d="M 843.28125 273.398438 L 1117.78125 273.398438 L 1117.78125 547.898438 L 843.28125 547.898438 Z M 843.28125 273.398438 " clip-rule="nonzero"/></clipPath><clipPath id="36c4242a20"><path d="M 980 410 L 1117.78125 410 L 1117.78125 547.898438 L 980 547.898438 Z M 980 410 " clip-rule="nonzero"/></clipPath><clipPath id="78285c184a"><path d="M 843.28125 273.398438 L 981 273.398438 L 981 411 L 843.28125 411 Z M 843.28125 273.398438 " clip-rule="nonzero"/></clipPath><clipPath id="b4b6fd044e"><path d="M 980 273.398438 L 1117.78125 273.398438 L 1117.78125 411 L 980 411 Z M 980 273.398438 " clip-rule="nonzero"/></clipPath><clipPath id="f099131ff2"><path d="M 843.28125 410 L 981 410 L 981 547.898438 L 843.28125 547.898438 Z M 843.28125 410 " clip-rule="nonzero"/></clipPath><clipPath id="4f59dc0c87"><path d="M 22.96875 546.902344 L 297.46875 546.902344 L 297.46875 810 L 22.96875 810 Z M 22.96875 546.902344 " clip-rule="nonzero"/></clipPath><clipPath id="54218c4ccc"><path d="M 22.96875 546.902344 L 297.46875 546.902344 L 297.46875 810 L 22.96875 810 Z M 22.96875 546.902344 " clip-rule="nonzero"/></clipPath><clipPath id="629de45477"><path d="M 295.605469 546.902344 L 570 546.902344 L 570 810 L 295.605469 810 Z M 295.605469 546.902344 " clip-rule="nonzero"/></clipPath><clipPath id="222eb8b754"><path d="M 295.984375 273.777344 L 569.734375 273.777344 L 569.734375 547.527344 L 295.984375 547.527344 Z M 295.984375 273.777344 " clip-rule="nonzero"/></clipPath><clipPath id="36a280d09c"><path d="M 295.984375 273.777344 L 433 273.777344 L 433 547.527344 L 295.984375 547.527344 Z M 295.984375 273.777344 " clip-rule="nonzero"/></clipPath><clipPath id="5f43cc5d73"><path d="M 296 412 L 567 412 L 567 547.527344 L 296 547.527344 Z M 296 412 " clip-rule="nonzero"/></clipPath><clipPath id="1a7331412b"><path d="M 295.984375 277 L 566 277 L 566 413 L 295.984375 413 Z M 295.984375 277 " clip-rule="nonzero"/></clipPath><clipPath id="43a84d0857"><path d="M 843.28125 546.902344 L 1117.78125 546.902344 L 1117.78125 810 L 843.28125 810 Z M 843.28125 546.902344 " clip-rule="nonzero"/></clipPath><clipPath id="6e496d97a6"><path d="M 570.394531 273.398438 L 844.894531 273.398438 L 844.894531 547.898438 L 570.394531 547.898438 Z M 570.394531 273.398438 " clip-rule="nonzero"/></clipPath><clipPath id="6800beaf31"><path d="M 297.125 0 L 571.625 0 L 571.625 274.5 L 297.125 274.5 Z M 297.125 0 " clip-rule="nonzero"/></clipPath><clipPath id="7a53997640"><path d="M 297.125 0 L 435 0 L 435 138 L 297.125 138 Z M 297.125 0 " clip-rule="nonzero"/></clipPath><clipPath id="5db881637a"><path d="M 570.394531 546.902344 L 844.894531 546.902344 L 844.894531 810 L 570.394531 810 Z M 570.394531 546.902344 " clip-rule="nonzero"/></clipPath></defs><g clip-path="url(#e9d1e03767)"><path fill="#2c3b58" d="M 22.96875 274.148438 L 22.96875 0 L 297.117188 0 L 297.117188 274.148438 Z M 22.96875 274.148438 " fill-opacity="1" fill-rule="nonzero"/><path fill="#242424" d="M 22.96875 0 C 174.277344 0 297.117188 122.84375 297.117188 274.148438 C 145.8125 274.148438 22.96875 151.308594 22.96875 0 Z M 22.96875 0 " fill-opacity="1" fill-rule="nonzero"/></g><g clip-path="url(#7f638565fe)"><path fill="#242424" d="M 1120.128906 274.148438 L 845.980469 274.148438 L 845.980469 0 L 1120.128906 0 Z M 1120.128906 274.148438 " fill-opacity="1" fill-rule="nonzero"/></g><g clip-path="url(#c164e3e752)"><path fill="#ffffff" d="M 983.054688 274.148438 L 845.980469 274.148438 L 845.980469 0 L 983.054688 0 Z M 983.054688 274.148438 " fill-opacity="1" fill-rule="nonzero"/></g><path fill="#61c8e2" d="M 914.519531 68.539062 L 1051.59375 68.539062 L 1051.59375 205.613281 L 914.519531 205.613281 Z M 914.519531 68.539062 " fill-opacity="1" fill-rule="nonzero"/><path fill="#ffc426" d="M 983.054688 68.539062 L 1051.59375 68.539062 L 1051.59375 205.613281 L 983.054688 205.613281 Z M 983.054688 68.539062 " fill-opacity="1" fill-rule="nonzero"/><g clip-path="url(#8eb79bb8ff)"><path fill="#ffffff" d="M 297.121094 547.550781 L 22.972656 547.550781 L 22.972656 273.402344 L 297.121094 273.402344 Z M 297.121094 547.550781 " fill-opacity="1" fill-rule="nonzero"/></g><g clip-path="url(#d9852a9549)"><path fill="#242424" d="M 160.042969 547.546875 L 22.96875 547.546875 L 22.96875 273.398438 L 160.042969 273.398438 C 84.339844 273.402344 22.972656 334.773438 22.972656 410.472656 C 22.972656 486.175781 84.339844 547.546875 160.042969 547.546875 Z M 160.042969 547.546875 " fill-opacity="1" fill-rule="nonzero"/></g><g clip-path="url(#616593b612)"><path fill="#ffb703" d="M 160.046875 273.398438 L 160.042969 273.398438 L 160.042969 547.546875 L 160.046875 547.546875 C 235.75 547.546875 297.121094 486.179688 297.121094 410.472656 C 297.121094 334.769531 235.75 273.398438 160.046875 273.398438 Z M 160.046875 273.398438 " fill-opacity="1" fill-rule="nonzero"/></g><g clip-path="url(#80197499c8)"><path fill="#61c8e2" d="M 91.511719 410.472656 C 91.511719 448.328125 122.191406 479.007812 160.042969 479.011719 L 160.042969 547.546875 C 84.339844 547.546875 22.972656 486.179688 22.972656 410.472656 C 22.972656 334.769531 84.339844 273.402344 160.042969 273.398438 L 160.042969 341.9375 C 122.191406 341.941406 91.511719 372.625 91.511719 410.472656 Z M 91.511719 410.472656 " fill-opacity="1" fill-rule="nonzero"/></g><path fill="#ffffff" d="M 160.042969 341.9375 L 160.042969 479.011719 C 122.191406 479.007812 91.511719 448.328125 91.511719 410.472656 C 91.511719 372.621094 122.191406 341.941406 160.042969 341.9375 Z M 160.042969 341.9375 " fill-opacity="1" fill-rule="nonzero"/><path fill="#0b5c9b" d="M 228.585938 410.472656 C 228.585938 448.328125 197.898438 479.011719 160.046875 479.011719 L 160.042969 479.011719 L 160.042969 341.9375 L 160.046875 341.9375 C 197.898438 341.9375 228.585938 372.625 228.585938 410.472656 Z M 228.585938 410.472656 " fill-opacity="1" fill-rule="nonzero"/><g clip-path="url(#ed8713073c)"><path fill="#ffffff" d="M 844.542969 274.148438 L 570.394531 274.148438 L 570.394531 0 L 844.542969 0 Z M 844.542969 274.148438 " fill-opacity="1" fill-rule="nonzero"/><path fill="#095999" d="M 844.542969 0 L 844.542969 274.148438 L 570.394531 274.148438 L 659.003906 185.535156 C 671.40625 197.9375 688.542969 205.613281 707.46875 205.613281 C 745.316406 205.613281 776.003906 174.925781 776.003906 137.074219 C 776.003906 118.148438 768.332031 101.011719 755.929688 88.613281 Z M 844.542969 0 " fill-opacity="1" fill-rule="nonzero"/></g><path fill="#242424" d="M 776.003906 137.074219 C 776.003906 174.925781 745.316406 205.613281 707.46875 205.613281 C 688.542969 205.613281 671.40625 197.9375 659.003906 185.535156 L 755.929688 88.613281 C 768.332031 101.011719 776.003906 118.148438 776.003906 137.074219 Z M 776.003906 137.074219 " fill-opacity="1" fill-rule="nonzero"/><path fill="#61c8e2" d="M 755.929688 88.613281 L 659.003906 185.535156 C 646.601562 173.136719 638.929688 156 638.929688 137.074219 C 638.929688 99.226562 669.617188 68.539062 707.46875 68.539062 C 726.390625 68.539062 743.527344 76.210938 755.929688 88.613281 Z M 755.929688 88.613281 " fill-opacity="1" fill-rule="nonzero"/><g clip-path="url(#172996f217)"><path fill="#ffffff" d="M 1117.429688 547.546875 L 843.28125 547.546875 L 843.28125 273.398438 L 1117.429688 273.398438 Z M 1117.429688 547.546875 " fill-opacity="1" fill-rule="nonzero"/></g><g clip-path="url(#36c4242a20)"><path fill="#242424" d="M 980.355469 410.472656 L 980.355469 547.546875 L 1117.429688 410.472656 Z M 980.355469 410.472656 " fill-opacity="1" fill-rule="nonzero"/></g><g clip-path="url(#78285c184a)"><path fill="#2c3b58" d="M 843.28125 273.398438 L 843.28125 410.472656 L 980.355469 273.398438 Z M 843.28125 273.398438 " fill-opacity="1" fill-rule="nonzero"/></g><g clip-path="url(#b4b6fd044e)"><path fill="#61c8e2" d="M 980.355469 273.398438 L 980.355469 410.472656 L 1117.429688 273.398438 Z M 980.355469 273.398438 " fill-opacity="1" fill-rule="nonzero"/></g><g clip-path="url(#f099131ff2)"><path fill="#ffc426" d="M 843.28125 410.472656 L 843.28125 547.546875 L 980.355469 410.472656 Z M 843.28125 410.472656 " fill-opacity="1" fill-rule="nonzero"/></g><g clip-path="url(#4f59dc0c87)"><path fill="#2c3b58" d="M 297.117188 821.050781 L 22.96875 821.050781 L 22.96875 546.902344 L 297.117188 546.902344 Z M 297.117188 821.050781 " fill-opacity="1" fill-rule="nonzero"/></g><path fill="#ffc426" d="M 91.507812 615.4375 L 228.582031 615.4375 L 228.582031 752.511719 L 91.507812 752.511719 Z M 91.507812 615.4375 " fill-opacity="1" fill-rule="nonzero"/><g clip-path="url(#54218c4ccc)"><path fill="#242424" d="M 297.117188 546.902344 L 22.96875 821.050781 L 297.117188 821.050781 Z M 297.117188 546.902344 " fill-opacity="1" fill-rule="nonzero"/></g><g clip-path="url(#629de45477)"><path fill="#ffffff" d="M 569.753906 821.050781 L 295.605469 821.050781 L 295.605469 546.902344 L 569.753906 546.902344 Z M 569.753906 821.050781 " fill-opacity="1" fill-rule="nonzero"/><path fill="#0b5c9b" d="M 295.605469 821.050781 L 569.753906 546.902344 L 295.605469 546.902344 Z M 295.605469 821.050781 " fill-opacity="1" fill-rule="nonzero"/></g><path fill="#242424" d="M 432.679688 683.976562 L 432.679688 821.050781 L 569.753906 683.976562 Z M 432.679688 683.976562 " fill-opacity="1" fill-rule="nonzero"/><g clip-path="url(#222eb8b754)"><path fill="#ffffff" d="M 569.382812 547.175781 L 295.984375 547.175781 L 295.984375 273.777344 L 569.382812 273.777344 Z M 569.382812 547.175781 " fill-opacity="1" fill-rule="nonzero"/></g><g clip-path="url(#36a280d09c)"><path fill="#ffffff" d="M 432.683594 547.175781 L 295.984375 547.175781 L 295.984375 273.777344 L 432.683594 273.777344 Z M 432.683594 547.175781 " fill-opacity="1" fill-rule="nonzero"/></g><g clip-path="url(#5f43cc5d73)"><path fill="#61c8e2" d="M 431.152344 412.246094 L 296.21875 547.175781 L 566.085938 547.175781 Z M 431.152344 412.246094 " fill-opacity="1" fill-rule="nonzero"/></g><g clip-path="url(#1a7331412b)"><path fill="#0b5c9b" d="M 430.917969 277.078125 L 295.984375 412.007812 L 565.847656 412.007812 Z M 430.917969 277.078125 " fill-opacity="1" fill-rule="nonzero"/></g><g clip-path="url(#43a84d0857)"><path fill="#2c3b58" d="M 843.28125 546.902344 L 1117.429688 546.902344 L 1117.429688 821.050781 L 843.28125 821.050781 Z M 843.28125 546.902344 " fill-opacity="1" fill-rule="nonzero"/><path fill="#61c8e2" d="M 1117.429688 683.976562 C 1041.726562 683.976562 980.355469 622.605469 980.355469 546.902344 C 980.355469 622.605469 918.984375 683.976562 843.28125 683.976562 C 918.984375 683.976562 980.355469 745.34375 980.355469 821.050781 C 980.355469 745.34375 1041.726562 683.976562 1117.429688 683.976562 Z M 1117.429688 683.976562 " fill-opacity="1" fill-rule="nonzero"/></g><g clip-path="url(#6e496d97a6)"><path fill="#242424" d="M 844.542969 547.546875 L 570.394531 547.546875 L 570.394531 273.398438 L 844.542969 273.398438 Z M 844.542969 547.546875 " fill-opacity="1" fill-rule="nonzero"/><path fill="#ffb703" d="M 844.542969 410.472656 C 844.542969 412.71875 844.484375 414.960938 844.375 417.199219 C 844.265625 419.441406 844.101562 421.675781 843.882812 423.910156 C 843.660156 426.140625 843.386719 428.367188 843.058594 430.585938 C 842.726562 432.804688 842.34375 435.015625 841.90625 437.214844 C 841.46875 439.417969 840.976562 441.605469 840.433594 443.78125 C 839.886719 445.957031 839.289062 448.117188 838.640625 450.265625 C 837.988281 452.410156 837.285156 454.539062 836.527344 456.652344 C 835.773438 458.765625 834.964844 460.859375 834.105469 462.929688 C 833.25 465.003906 832.339844 467.054688 831.378906 469.082031 C 830.421875 471.109375 829.414062 473.113281 828.355469 475.089844 C 827.296875 477.070312 826.191406 479.019531 825.039062 480.945312 C 823.886719 482.867188 822.6875 484.761719 821.441406 486.628906 C 820.195312 488.492188 818.902344 490.328125 817.566406 492.128906 C 816.230469 493.929688 814.851562 495.699219 813.425781 497.433594 C 812.003906 499.167969 810.539062 500.867188 809.03125 502.527344 C 807.527344 504.191406 805.980469 505.8125 804.394531 507.398438 C 802.808594 508.988281 801.183594 510.53125 799.519531 512.039062 C 797.859375 513.546875 796.160156 515.011719 794.425781 516.433594 C 792.691406 517.855469 790.921875 519.238281 789.121094 520.574219 C 787.320312 521.910156 785.488281 523.199219 783.621094 524.449219 C 781.757812 525.695312 779.859375 526.894531 777.9375 528.046875 C 776.011719 529.199219 774.0625 530.304688 772.082031 531.363281 C 770.105469 532.421875 768.101562 533.429688 766.074219 534.386719 C 764.046875 535.347656 761.996094 536.253906 759.921875 537.113281 C 757.851562 537.972656 755.757812 538.78125 753.644531 539.535156 C 751.535156 540.292969 749.402344 540.996094 747.257812 541.644531 C 745.109375 542.296875 742.949219 542.894531 740.773438 543.441406 C 738.597656 543.984375 736.410156 544.476562 734.207031 544.914062 C 732.007812 545.351562 729.800781 545.734375 727.578125 546.066406 C 725.359375 546.394531 723.136719 546.667969 720.902344 546.886719 C 718.671875 547.109375 716.433594 547.273438 714.191406 547.382812 C 711.953125 547.492188 709.710938 547.546875 707.46875 547.546875 C 705.222656 547.546875 702.980469 547.492188 700.742188 547.382812 C 698.5 547.273438 696.265625 547.109375 694.03125 546.886719 C 691.796875 546.667969 689.574219 546.394531 687.355469 546.066406 C 685.136719 545.734375 682.925781 545.351562 680.726562 544.914062 C 678.523438 544.476562 676.335938 543.984375 674.160156 543.441406 C 671.984375 542.894531 669.824219 542.296875 667.675781 541.644531 C 665.53125 540.996094 663.398438 540.292969 661.289062 539.535156 C 659.175781 538.78125 657.082031 537.972656 655.011719 537.113281 C 652.9375 536.253906 650.886719 535.347656 648.859375 534.386719 C 646.832031 533.429688 644.828125 532.421875 642.851562 531.363281 C 640.871094 530.304688 638.921875 529.199219 636.996094 528.046875 C 635.074219 526.894531 633.179688 525.695312 631.3125 524.449219 C 629.449219 523.199219 627.613281 521.910156 625.8125 520.574219 C 624.011719 519.238281 622.242188 517.855469 620.507812 516.433594 C 618.773438 515.011719 617.074219 513.546875 615.414062 512.039062 C 613.75 510.53125 612.128906 508.988281 610.539062 507.398438 C 608.953125 505.8125 607.40625 504.191406 605.902344 502.527344 C 604.394531 500.867188 602.929688 499.167969 601.507812 497.433594 C 600.085938 495.699219 598.703125 493.929688 597.367188 492.128906 C 596.03125 490.328125 594.738281 488.492188 593.492188 486.628906 C 592.246094 484.761719 591.046875 482.867188 589.894531 480.945312 C 588.742188 479.019531 587.636719 477.070312 586.578125 475.089844 C 585.519531 473.113281 584.511719 471.109375 583.554688 469.082031 C 582.59375 467.054688 581.683594 465.003906 580.828125 462.929688 C 579.96875 460.859375 579.160156 458.765625 578.40625 456.652344 C 577.648438 454.539062 576.945312 452.410156 576.296875 450.265625 C 575.644531 448.117188 575.046875 445.957031 574.5 443.78125 C 573.957031 441.605469 573.464844 439.417969 573.027344 437.214844 C 572.589844 435.015625 572.207031 432.804688 571.875 430.585938 C 571.546875 428.367188 571.273438 426.140625 571.054688 423.910156 C 570.832031 421.675781 570.667969 419.441406 570.558594 417.199219 C 570.449219 414.960938 570.394531 412.71875 570.394531 410.472656 C 570.394531 408.230469 570.449219 405.988281 570.558594 403.75 C 570.667969 401.507812 570.832031 399.269531 571.054688 397.039062 C 571.273438 394.804688 571.546875 392.582031 571.875 390.359375 C 572.207031 388.140625 572.589844 385.933594 573.027344 383.734375 C 573.464844 381.53125 573.957031 379.34375 574.5 377.167969 C 575.046875 374.992188 575.644531 372.832031 576.296875 370.683594 C 576.945312 368.535156 577.648438 366.40625 578.40625 364.296875 C 579.160156 362.183594 579.96875 360.089844 580.828125 358.019531 C 581.683594 355.945312 582.59375 353.894531 583.554688 351.867188 C 584.511719 349.839844 585.519531 347.835938 586.578125 345.859375 C 587.636719 343.878906 588.742188 341.929688 589.894531 340.003906 C 591.046875 338.078125 592.246094 336.183594 593.492188 334.320312 C 594.738281 332.453125 596.03125 330.621094 597.367188 328.820312 C 598.703125 327.015625 600.085938 325.25 601.507812 323.515625 C 602.929688 321.78125 604.394531 320.082031 605.902344 318.421875 C 607.40625 316.757812 608.953125 315.132812 610.539062 313.546875 C 612.128906 311.960938 613.75 310.414062 615.414062 308.910156 C 617.074219 307.402344 618.773438 305.9375 620.507812 304.515625 C 622.242188 303.089844 624.011719 301.710938 625.8125 300.375 C 627.613281 299.039062 629.449219 297.746094 631.3125 296.5 C 633.179688 295.253906 635.074219 294.054688 636.996094 292.902344 C 638.921875 291.75 640.871094 290.644531 642.851562 289.585938 C 644.828125 288.527344 646.832031 287.519531 648.859375 286.5625 C 650.886719 285.601562 652.9375 284.691406 655.011719 283.835938 C 657.082031 282.976562 659.175781 282.167969 661.289062 281.414062 C 663.398438 280.65625 665.53125 279.953125 667.675781 279.300781 C 669.824219 278.652344 671.984375 278.054688 674.160156 277.507812 C 676.335938 276.964844 678.523438 276.472656 680.726562 276.035156 C 682.925781 275.597656 685.136719 275.210938 687.355469 274.882812 C 689.574219 274.554688 691.796875 274.28125 694.03125 274.058594 C 696.265625 273.839844 698.5 273.675781 700.742188 273.566406 C 702.980469 273.457031 705.222656 273.398438 707.46875 273.398438 C 709.710938 273.398438 711.953125 273.457031 714.191406 273.566406 C 716.433594 273.675781 718.671875 273.839844 720.902344 274.058594 C 723.136719 274.28125 725.359375 274.554688 727.578125 274.882812 C 729.800781 275.210938 732.007812 275.597656 734.207031 276.035156 C 736.410156 276.472656 738.597656 276.964844 740.773438 277.507812 C 742.949219 278.054688 745.109375 278.652344 747.257812 279.300781 C 749.402344 279.953125 751.535156 280.65625 753.644531 281.414062 C 755.757812 282.167969 757.851562 282.976562 759.921875 283.835938 C 761.996094 284.691406 764.046875 285.601562 766.074219 286.5625 C 768.101562 287.519531 770.105469 288.527344 772.082031 289.585938 C 774.0625 290.644531 776.011719 291.75 777.9375 292.902344 C 779.859375 294.054688 781.757812 295.253906 783.621094 296.5 C 785.488281 297.746094 787.320312 299.039062 789.121094 300.375 C 790.921875 301.710938 792.691406 303.089844 794.425781 304.515625 C 796.160156 305.9375 797.859375 307.402344 799.519531 308.910156 C 801.183594 310.414062 802.808594 311.960938 804.394531 313.546875 C 805.980469 315.132812 807.527344 316.757812 809.03125 318.421875 C 810.539062 320.082031 812.003906 321.78125 813.425781 323.515625 C 814.851562 325.25 816.230469 327.015625 817.566406 328.820312 C 818.902344 330.621094 820.195312 332.453125 821.441406 334.320312 C 822.6875 336.183594 823.886719 338.078125 825.039062 340.003906 C 826.191406 341.929688 827.296875 343.878906 828.355469 345.859375 C 829.414062 347.835938 830.421875 349.839844 831.378906 351.867188 C 832.339844 353.894531 833.25 355.945312 834.105469 358.019531 C 834.964844 360.089844 835.773438 362.183594 836.527344 364.296875 C 837.285156 366.40625 837.988281 368.535156 838.640625 370.683594 C 839.289062 372.832031 839.886719 374.992188 840.433594 377.167969 C 840.976562 379.34375 841.46875 381.53125 841.90625 383.734375 C 842.34375 385.933594 842.726562 388.140625 843.058594 390.359375 C 843.386719 392.582031 843.660156 394.804688 843.882812 397.039062 C 844.101562 399.269531 844.265625 401.507812 844.375 403.75 C 844.484375 405.988281 844.542969 408.230469 844.542969 410.472656 Z M 844.542969 410.472656 " fill-opacity="1" fill-rule="nonzero"/></g><path fill="#ffffff" d="M 828.71875 410.472656 C 828.71875 412.039062 828.671875 413.601562 828.574219 415.164062 C 828.476562 416.726562 828.332031 418.289062 828.136719 419.84375 C 827.941406 421.402344 827.699219 422.953125 827.40625 424.5 C 827.117188 426.046875 826.777344 427.589844 826.390625 429.125 C 826.003906 430.65625 825.570312 432.183594 825.085938 433.703125 C 824.605469 435.21875 824.074219 436.726562 823.5 438.222656 C 822.921875 439.71875 822.300781 441.207031 821.632812 442.679688 C 820.964844 444.152344 820.25 445.609375 819.492188 447.054688 C 818.730469 448.5 817.925781 449.929688 817.078125 451.347656 C 816.230469 452.761719 815.339844 454.15625 814.402344 455.535156 C 813.46875 456.917969 812.488281 458.277344 811.46875 459.617188 C 810.449219 460.960938 809.386719 462.28125 808.285156 463.582031 C 807.183594 464.882812 806.039062 466.164062 804.859375 467.417969 C 803.675781 468.675781 802.457031 469.910156 801.195312 471.117188 C 799.9375 472.328125 798.640625 473.511719 797.308594 474.671875 C 795.976562 475.832031 794.609375 476.960938 793.207031 478.070312 C 791.804688 479.175781 790.367188 480.253906 788.894531 481.304688 C 787.425781 482.355469 785.921875 483.375 784.390625 484.367188 C 782.855469 485.363281 781.292969 486.324219 779.699219 487.253906 C 778.105469 488.1875 776.480469 489.089844 774.832031 489.957031 C 773.183594 490.828125 771.503906 491.664062 769.804688 492.46875 C 768.101562 493.273438 766.375 494.042969 764.625 494.78125 C 762.875 495.519531 761.101562 496.222656 759.308594 496.890625 C 757.515625 497.558594 755.703125 498.191406 753.867188 498.792969 C 752.035156 499.390625 750.183594 499.953125 748.316406 500.480469 C 746.449219 501.007812 744.5625 501.496094 742.664062 501.953125 C 740.765625 502.40625 738.855469 502.824219 736.929688 503.203125 C 735.003906 503.582031 733.070312 503.925781 731.121094 504.230469 C 729.175781 504.535156 727.222656 504.804688 725.257812 505.03125 C 723.296875 505.261719 721.328125 505.453125 719.351562 505.609375 C 717.378906 505.761719 715.398438 505.875 713.417969 505.953125 C 711.433594 506.03125 709.453125 506.066406 707.46875 506.066406 C 705.484375 506.066406 703.5 506.03125 701.515625 505.953125 C 699.535156 505.875 697.558594 505.761719 695.582031 505.609375 C 693.605469 505.453125 691.636719 505.261719 689.675781 505.03125 C 687.710938 504.804688 685.757812 504.535156 683.8125 504.230469 C 681.867188 503.925781 679.929688 503.582031 678.003906 503.203125 C 676.078125 502.824219 674.167969 502.40625 672.269531 501.953125 C 670.371094 501.496094 668.484375 501.007812 666.617188 500.480469 C 664.75 499.953125 662.898438 499.390625 661.066406 498.792969 C 659.230469 498.191406 657.417969 497.558594 655.625 496.890625 C 653.832031 496.222656 652.058594 495.519531 650.308594 494.78125 C 648.558594 494.042969 646.832031 493.273438 645.128906 492.46875 C 643.429688 491.664062 641.753906 490.828125 640.101562 489.957031 C 638.453125 489.089844 636.832031 488.1875 635.238281 487.253906 C 633.640625 486.324219 632.078125 485.363281 630.542969 484.367188 C 629.011719 483.375 627.507812 482.355469 626.039062 481.304688 C 624.566406 480.253906 623.132812 479.175781 621.726562 478.070312 C 620.324219 476.960938 618.957031 475.832031 617.625 474.671875 C 616.292969 473.511719 614.996094 472.328125 613.738281 471.117188 C 612.476562 469.910156 611.257812 468.675781 610.074219 467.417969 C 608.894531 466.164062 607.75 464.882812 606.648438 463.582031 C 605.546875 462.28125 604.484375 460.960938 603.464844 459.617188 C 602.445312 458.277344 601.464844 456.917969 600.53125 455.535156 C 599.59375 454.15625 598.703125 452.761719 597.855469 451.347656 C 597.007812 449.929688 596.203125 448.5 595.445312 447.054688 C 594.683594 445.609375 593.96875 444.152344 593.300781 442.679688 C 592.632812 441.207031 592.011719 439.71875 591.433594 438.222656 C 590.859375 436.726562 590.328125 435.21875 589.847656 433.703125 C 589.363281 432.183594 588.929688 430.65625 588.542969 429.125 C 588.15625 427.589844 587.816406 426.046875 587.527344 424.5 C 587.234375 422.953125 586.992188 421.402344 586.796875 419.84375 C 586.601562 418.289062 586.457031 416.726562 586.359375 415.164062 C 586.261719 413.601562 586.214844 412.039062 586.214844 410.472656 C 586.214844 408.910156 586.261719 407.347656 586.359375 405.785156 C 586.457031 404.222656 586.601562 402.660156 586.796875 401.105469 C 586.992188 399.546875 587.234375 397.996094 587.527344 396.449219 C 587.816406 394.898438 588.15625 393.359375 588.542969 391.824219 C 588.929688 390.289062 589.363281 388.765625 589.847656 387.246094 C 590.328125 385.730469 590.859375 384.222656 591.433594 382.726562 C 592.011719 381.226562 592.632812 379.742188 593.300781 378.269531 C 593.96875 376.796875 594.683594 375.335938 595.445312 373.890625 C 596.203125 372.445312 597.007812 371.015625 597.855469 369.601562 C 598.703125 368.1875 599.59375 366.792969 600.53125 365.410156 C 601.464844 364.03125 602.445312 362.671875 603.464844 361.328125 C 604.484375 359.988281 605.546875 358.667969 606.648438 357.367188 C 607.75 356.066406 608.894531 354.785156 610.074219 353.53125 C 611.257812 352.273438 612.476562 351.039062 613.738281 349.832031 C 614.996094 348.621094 616.292969 347.4375 617.625 346.277344 C 618.957031 345.117188 620.324219 343.984375 621.726562 342.878906 C 623.132812 341.773438 624.566406 340.695312 626.039062 339.644531 C 627.507812 338.59375 629.011719 337.570312 630.542969 336.578125 C 632.078125 335.585938 633.640625 334.625 635.238281 333.691406 C 636.832031 332.761719 638.453125 331.859375 640.101562 330.992188 C 641.753906 330.121094 643.429688 329.285156 645.128906 328.480469 C 646.832031 327.675781 648.558594 326.90625 650.308594 326.167969 C 652.058594 325.429688 653.832031 324.726562 655.625 324.058594 C 657.417969 323.390625 659.230469 322.757812 661.066406 322.15625 C 662.898438 321.558594 664.75 320.996094 666.617188 320.46875 C 668.484375 319.941406 670.371094 319.449219 672.269531 318.996094 C 674.167969 318.542969 676.078125 318.125 678.003906 317.746094 C 679.929688 317.367188 681.867188 317.023438 683.8125 316.71875 C 685.757812 316.414062 687.710938 316.144531 689.675781 315.914062 C 691.636719 315.6875 693.605469 315.496094 695.582031 315.339844 C 697.558594 315.1875 699.535156 315.074219 701.515625 314.996094 C 703.5 314.917969 705.484375 314.878906 707.46875 314.878906 C 709.453125 314.878906 711.433594 314.917969 713.417969 314.996094 C 715.398438 315.074219 717.378906 315.1875 719.351562 315.339844 C 721.328125 315.496094 723.296875 315.6875 725.257812 315.914062 C 727.222656 316.144531 729.175781 316.414062 731.121094 316.71875 C 733.070312 317.023438 735.003906 317.367188 736.929688 317.746094 C 738.855469 318.125 740.765625 318.542969 742.664062 318.996094 C 744.5625 319.449219 746.449219 319.941406 748.316406 320.46875 C 750.183594 320.996094 752.035156 321.558594 753.867188 322.15625 C 755.703125 322.757812 757.515625 323.390625 759.308594 324.058594 C 761.101562 324.726562 762.875 325.429688 764.625 326.167969 C 766.375 326.90625 768.101562 327.675781 769.804688 328.480469 C 771.503906 329.285156 773.183594 330.121094 774.832031 330.992188 C 776.480469 331.859375 778.105469 332.761719 779.699219 333.691406 C 781.292969 334.625 782.855469 335.585938 784.390625 336.578125 C 785.921875 337.570312 787.425781 338.59375 788.894531 339.644531 C 790.367188 340.695312 791.804688 341.773438 793.207031 342.878906 C 794.609375 343.984375 795.976562 345.117188 797.308594 346.277344 C 798.640625 347.4375 799.9375 348.621094 801.195312 349.832031 C 802.457031 351.039062 803.675781 352.273438 804.859375 353.53125 C 806.039062 354.785156 807.183594 356.066406 808.285156 357.367188 C 809.386719 358.667969 810.449219 359.988281 811.46875 361.328125 C 812.488281 362.671875 813.46875 364.03125 814.402344 365.410156 C 815.339844 366.792969 816.230469 368.1875 817.078125 369.601562 C 817.925781 371.015625 818.730469 372.445312 819.492188 373.890625 C 820.25 375.335938 820.964844 376.796875 821.632812 378.269531 C 822.300781 379.742188 822.921875 381.226562 823.5 382.726562 C 824.074219 384.222656 824.605469 385.730469 825.085938 387.246094 C 825.570312 388.765625 826.003906 390.289062 826.390625 391.824219 C 826.777344 393.359375 827.117188 394.898438 827.40625 396.449219 C 827.699219 397.996094 827.941406 399.546875 828.136719 401.105469 C 828.332031 402.660156 828.476562 404.222656 828.574219 405.785156 C 828.671875 407.347656 828.71875 408.910156 828.71875 410.472656 Z M 828.71875 410.472656 " fill-opacity="1" fill-rule="nonzero"/><path fill="#000000" d="M 759.714844 410.472656 C 759.714844 412.183594 759.632812 413.890625 759.464844 415.59375 C 759.296875 417.296875 759.046875 418.988281 758.710938 420.667969 C 758.378906 422.347656 757.960938 424.003906 757.464844 425.640625 C 756.96875 427.277344 756.394531 428.886719 755.738281 430.46875 C 755.082031 432.050781 754.351562 433.59375 753.546875 435.105469 C 752.738281 436.613281 751.859375 438.078125 750.910156 439.5 C 749.960938 440.925781 748.941406 442.296875 747.855469 443.621094 C 746.769531 444.941406 745.621094 446.210938 744.410156 447.417969 C 743.203125 448.628906 741.9375 449.777344 740.613281 450.863281 C 739.289062 451.949219 737.917969 452.964844 736.496094 453.917969 C 735.070312 454.867188 733.605469 455.746094 732.097656 456.554688 C 730.585938 457.359375 729.042969 458.089844 727.460938 458.746094 C 725.878906 459.398438 724.269531 459.976562 722.632812 460.472656 C 720.996094 460.96875 719.339844 461.382812 717.660156 461.71875 C 715.980469 462.050781 714.292969 462.304688 712.589844 462.472656 C 710.886719 462.640625 709.179688 462.722656 707.46875 462.722656 C 705.753906 462.722656 704.046875 462.640625 702.347656 462.472656 C 700.644531 462.304688 698.953125 462.050781 697.273438 461.71875 C 695.59375 461.382812 693.9375 460.96875 692.300781 460.472656 C 690.664062 459.976562 689.054688 459.398438 687.472656 458.746094 C 685.890625 458.089844 684.347656 457.359375 682.835938 456.554688 C 681.328125 455.746094 679.863281 454.867188 678.4375 453.917969 C 677.015625 452.964844 675.644531 451.949219 674.320312 450.863281 C 673 449.777344 671.730469 448.628906 670.523438 447.417969 C 669.3125 446.210938 668.164062 444.941406 667.078125 443.621094 C 665.992188 442.296875 664.976562 440.925781 664.023438 439.5 C 663.074219 438.078125 662.195312 436.613281 661.386719 435.105469 C 660.582031 433.59375 659.851562 432.050781 659.195312 430.46875 C 658.542969 428.886719 657.964844 427.277344 657.46875 425.640625 C 656.972656 424.003906 656.554688 422.347656 656.222656 420.667969 C 655.890625 418.988281 655.636719 417.296875 655.46875 415.59375 C 655.300781 413.890625 655.21875 412.183594 655.21875 410.472656 C 655.21875 408.761719 655.300781 407.054688 655.46875 405.351562 C 655.636719 403.648438 655.890625 401.960938 656.222656 400.28125 C 656.554688 398.601562 656.972656 396.945312 657.46875 395.308594 C 657.964844 393.667969 658.542969 392.0625 659.195312 390.480469 C 659.851562 388.898438 660.582031 387.355469 661.386719 385.84375 C 662.195312 384.335938 663.074219 382.871094 664.023438 381.445312 C 664.976562 380.023438 665.992188 378.652344 667.078125 377.328125 C 668.164062 376.003906 669.3125 374.738281 670.523438 373.527344 C 671.730469 372.320312 673 371.171875 674.320312 370.085938 C 675.644531 369 677.015625 367.980469 678.4375 367.03125 C 679.863281 366.082031 681.328125 365.203125 682.835938 364.394531 C 684.347656 363.589844 685.890625 362.859375 687.472656 362.203125 C 689.054688 361.546875 690.664062 360.972656 692.300781 360.476562 C 693.9375 359.980469 695.59375 359.5625 697.273438 359.230469 C 698.953125 358.894531 700.644531 358.644531 702.347656 358.476562 C 704.046875 358.308594 705.753906 358.226562 707.46875 358.226562 C 709.179688 358.226562 710.886719 358.308594 712.589844 358.476562 C 714.292969 358.644531 715.980469 358.894531 717.660156 359.230469 C 719.339844 359.5625 720.996094 359.980469 722.632812 360.476562 C 724.269531 360.972656 725.878906 361.546875 727.460938 362.203125 C 729.042969 362.859375 730.585938 363.589844 732.097656 364.394531 C 733.605469 365.203125 735.070312 366.082031 736.496094 367.03125 C 737.917969 367.980469 739.289062 369 740.613281 370.085938 C 741.9375 371.171875 743.203125 372.320312 744.410156 373.527344 C 745.621094 374.738281 746.769531 376.003906 747.855469 377.328125 C 748.941406 378.652344 749.960938 380.023438 750.910156 381.445312 C 751.859375 382.871094 752.738281 384.335938 753.546875 385.84375 C 754.351562 387.355469 755.082031 388.898438 755.738281 390.480469 C 756.394531 392.0625 756.96875 393.667969 757.464844 395.308594 C 757.960938 396.945312 758.378906 398.601562 758.710938 400.28125 C 759.046875 401.960938 759.296875 403.648438 759.464844 405.351562 C 759.632812 407.054688 759.714844 408.761719 759.714844 410.472656 Z M 759.714844 410.472656 " fill-opacity="1" fill-rule="nonzero"/><g clip-path="url(#6800beaf31)"><path fill="#ffffff" d="M 571.273438 274.148438 L 297.125 274.148438 L 297.125 0 L 571.273438 0 Z M 571.273438 274.148438 " fill-opacity="1" fill-rule="nonzero"/><path fill="#61c8e2" d="M 297.125 274.148438 L 297.125 0 L 571.273438 0 C 571.273438 151.308594 448.433594 274.148438 297.125 274.148438 Z M 297.125 274.148438 " fill-opacity="1" fill-rule="nonzero"/></g><g clip-path="url(#7a53997640)"><path fill="#ffffff" d="M 297.125 137.074219 L 297.125 0 L 434.199219 0 C 434.199219 75.652344 372.777344 137.074219 297.125 137.074219 Z M 297.125 137.074219 " fill-opacity="1" fill-rule="nonzero"/></g><g clip-path="url(#5db881637a)"><path fill="#0b5c9b" d="M 844.542969 821.050781 L 570.394531 821.050781 L 570.394531 546.902344 L 844.542969 546.902344 Z M 844.542969 821.050781 " fill-opacity="1" fill-rule="nonzero"/><path fill="#61c8e2" d="M 844.542969 546.902344 L 570.394531 821.050781 L 844.542969 821.050781 Z M 844.542969 546.902344 " fill-opacity="1" fill-rule="nonzero"/></g><path fill="#ffb703" d="M 776.003906 683.976562 C 776.003906 685.097656 775.976562 686.21875 775.921875 687.339844 C 775.867188 688.457031 775.785156 689.578125 775.675781 690.691406 C 775.5625 691.808594 775.425781 692.921875 775.261719 694.03125 C 775.097656 695.140625 774.90625 696.246094 774.6875 697.347656 C 774.46875 698.445312 774.222656 699.539062 773.949219 700.628906 C 773.675781 701.714844 773.378906 702.796875 773.054688 703.871094 C 772.726562 704.945312 772.375 706.007812 771.996094 707.066406 C 771.621094 708.121094 771.214844 709.167969 770.785156 710.203125 C 770.359375 711.238281 769.902344 712.265625 769.421875 713.277344 C 768.945312 714.292969 768.441406 715.292969 767.910156 716.285156 C 767.382812 717.273438 766.828125 718.25 766.253906 719.210938 C 765.675781 720.171875 765.078125 721.121094 764.453125 722.050781 C 763.832031 722.984375 763.183594 723.902344 762.515625 724.804688 C 761.847656 725.703125 761.160156 726.585938 760.445312 727.453125 C 759.734375 728.320312 759.003906 729.171875 758.25 730.003906 C 757.496094 730.832031 756.722656 731.644531 755.929688 732.4375 C 755.136719 733.230469 754.324219 734.003906 753.492188 734.757812 C 752.664062 735.511719 751.8125 736.242188 750.945312 736.957031 C 750.078125 737.667969 749.195312 738.355469 748.292969 739.023438 C 747.394531 739.691406 746.476562 740.339844 745.542969 740.960938 C 744.613281 741.585938 743.664062 742.183594 742.703125 742.761719 C 741.738281 743.339844 740.765625 743.890625 739.773438 744.417969 C 738.785156 744.949219 737.785156 745.453125 736.769531 745.933594 C 735.757812 746.410156 734.730469 746.867188 733.695312 747.296875 C 732.660156 747.726562 731.613281 748.128906 730.554688 748.507812 C 729.5 748.882812 728.4375 749.234375 727.363281 749.5625 C 726.289062 749.886719 725.207031 750.1875 724.121094 750.457031 C 723.03125 750.730469 721.9375 750.976562 720.835938 751.195312 C 719.738281 751.414062 718.632812 751.605469 717.523438 751.769531 C 716.414062 751.933594 715.300781 752.074219 714.183594 752.183594 C 713.070312 752.292969 711.949219 752.375 710.828125 752.429688 C 709.710938 752.484375 708.589844 752.511719 707.46875 752.511719 C 706.34375 752.511719 705.222656 752.484375 704.105469 752.429688 C 702.984375 752.375 701.867188 752.292969 700.75 752.183594 C 699.632812 752.074219 698.519531 751.933594 697.410156 751.769531 C 696.300781 751.605469 695.195312 751.414062 694.097656 751.195312 C 692.996094 750.976562 691.902344 750.730469 690.8125 750.457031 C 689.726562 750.1875 688.644531 749.886719 687.570312 749.5625 C 686.5 749.234375 685.433594 748.882812 684.378906 748.507812 C 683.320312 748.128906 682.273438 747.726562 681.238281 747.296875 C 680.203125 746.867188 679.175781 746.410156 678.164062 745.933594 C 677.148438 745.453125 676.148438 744.949219 675.160156 744.417969 C 674.167969 743.890625 673.195312 743.339844 672.230469 742.761719 C 671.269531 742.183594 670.324219 741.585938 669.390625 740.960938 C 668.457031 740.339844 667.539062 739.691406 666.640625 739.023438 C 665.738281 738.355469 664.855469 737.667969 663.988281 736.957031 C 663.121094 736.242188 662.269531 735.511719 661.441406 734.757812 C 660.609375 734.003906 659.796875 733.230469 659.003906 732.4375 C 658.210938 731.644531 657.4375 730.832031 656.683594 730.003906 C 655.929688 729.171875 655.199219 728.320312 654.488281 727.453125 C 653.777344 726.585938 653.085938 725.703125 652.417969 724.804688 C 651.75 723.902344 651.105469 722.984375 650.480469 722.050781 C 649.855469 721.121094 649.257812 720.171875 648.679688 719.210938 C 648.105469 718.25 647.550781 717.273438 647.023438 716.285156 C 646.492188 715.292969 645.988281 714.292969 645.511719 713.277344 C 645.03125 712.265625 644.574219 711.238281 644.148438 710.203125 C 643.71875 709.167969 643.3125 708.121094 642.9375 707.066406 C 642.558594 706.007812 642.207031 704.945312 641.882812 703.871094 C 641.554688 702.796875 641.257812 701.714844 640.984375 700.628906 C 640.710938 699.539062 640.464844 698.445312 640.246094 697.347656 C 640.027344 696.246094 639.835938 695.140625 639.671875 694.03125 C 639.507812 692.921875 639.371094 691.808594 639.261719 690.691406 C 639.148438 689.578125 639.066406 688.457031 639.011719 687.339844 C 638.957031 686.21875 638.929688 685.097656 638.929688 683.976562 C 638.929688 682.855469 638.957031 681.734375 639.011719 680.613281 C 639.066406 679.492188 639.148438 678.375 639.261719 677.257812 C 639.371094 676.140625 639.507812 675.027344 639.671875 673.917969 C 639.835938 672.808594 640.027344 671.703125 640.246094 670.605469 C 640.464844 669.503906 640.710938 668.410156 640.984375 667.320312 C 641.257812 666.234375 641.554688 665.152344 641.882812 664.082031 C 642.207031 663.007812 642.558594 661.941406 642.9375 660.886719 C 643.3125 659.828125 643.71875 658.785156 644.148438 657.746094 C 644.574219 656.710938 645.03125 655.6875 645.511719 654.671875 C 645.988281 653.65625 646.492188 652.65625 647.023438 651.667969 C 647.550781 650.679688 648.105469 649.703125 648.679688 648.742188 C 649.257812 647.777344 649.855469 646.832031 650.480469 645.898438 C 651.105469 644.964844 651.75 644.046875 652.417969 643.148438 C 653.085938 642.246094 653.777344 641.363281 654.488281 640.496094 C 655.199219 639.628906 655.929688 638.78125 656.683594 637.949219 C 657.4375 637.117188 658.210938 636.304688 659.003906 635.511719 C 659.796875 634.71875 660.609375 633.945312 661.441406 633.191406 C 662.269531 632.441406 663.121094 631.707031 663.988281 630.996094 C 664.855469 630.285156 665.738281 629.59375 666.640625 628.925781 C 667.539062 628.257812 668.457031 627.613281 669.390625 626.988281 C 670.324219 626.367188 671.269531 625.765625 672.230469 625.1875 C 673.195312 624.613281 674.167969 624.058594 675.160156 623.53125 C 676.148438 623.003906 677.148438 622.5 678.164062 622.019531 C 679.175781 621.539062 680.203125 621.085938 681.238281 620.65625 C 682.273438 620.226562 683.320312 619.824219 684.378906 619.445312 C 685.433594 619.066406 686.5 618.714844 687.570312 618.390625 C 688.644531 618.0625 689.726562 617.765625 690.8125 617.492188 C 691.902344 617.21875 692.996094 616.972656 694.097656 616.753906 C 695.195312 616.535156 696.300781 616.34375 697.410156 616.179688 C 698.519531 616.015625 699.632812 615.878906 700.75 615.769531 C 701.867188 615.660156 702.984375 615.574219 704.105469 615.519531 C 705.222656 615.464844 706.34375 615.4375 707.46875 615.4375 C 708.589844 615.4375 709.710938 615.464844 710.828125 615.519531 C 711.949219 615.574219 713.070312 615.660156 714.183594 615.769531 C 715.300781 615.878906 716.414062 616.015625 717.523438 616.179688 C 718.632812 616.34375 719.738281 616.535156 720.835938 616.753906 C 721.9375 616.972656 723.03125 617.21875 724.121094 617.492188 C 725.207031 617.765625 726.289062 618.0625 727.363281 618.390625 C 728.4375 618.714844 729.5 619.066406 730.554688 619.445312 C 731.613281 619.824219 732.660156 620.226562 733.695312 620.65625 C 734.730469 621.085938 735.757812 621.539062 736.769531 622.019531 C 737.785156 622.5 738.785156 623.003906 739.773438 623.53125 C 740.765625 624.058594 741.738281 624.613281 742.703125 625.1875 C 743.664062 625.765625 744.613281 626.367188 745.542969 626.988281 C 746.476562 627.613281 747.394531 628.257812 748.292969 628.925781 C 749.195312 629.59375 750.078125 630.285156 750.945312 630.996094 C 751.8125 631.707031 752.664062 632.441406 753.492188 633.191406 C 754.324219 633.945312 755.136719 634.71875 755.929688 635.511719 C 756.722656 636.304688 757.496094 637.117188 758.25 637.949219 C 759.003906 638.78125 759.734375 639.628906 760.445312 640.496094 C 761.160156 641.363281 761.847656 642.246094 762.515625 643.148438 C 763.183594 644.046875 763.832031 644.964844 764.453125 645.898438 C 765.078125 646.832031 765.675781 647.777344 766.253906 648.742188 C 766.828125 649.703125 767.382812 650.679688 767.910156 651.667969 C 768.441406 652.65625 768.945312 653.65625 769.421875 654.671875 C 769.902344 655.6875 770.359375 656.710938 770.785156 657.746094 C 771.214844 658.785156 771.621094 659.828125 771.996094 660.886719 C 772.375 661.941406 772.726562 663.007812 773.054688 664.082031 C 773.378906 665.152344 773.675781 666.234375 773.949219 667.320312 C 774.222656 668.410156 774.46875 669.503906 774.6875 670.605469 C 774.90625 671.703125 775.097656 672.808594 775.261719 673.917969 C 775.425781 675.027344 775.5625 676.140625 775.675781 677.257812 C 775.785156 678.375 775.867188 679.492188 775.921875 680.613281 C 775.976562 681.734375 776.003906 682.855469 776.003906 683.976562 Z M 776.003906 683.976562 " fill-opacity="1" fill-rule="nonzero"/></svg>
